# Blender3D v249 OBJ File: 
# www.blender3d.org
mtllib floor.mtl
v 10.000000 -0.000000 -10.000000
v 0.000000 0.000000 0.000000
v 0.000000 -0.000000 -10.000000
v 10.000000 0.000000 0.000000
v 0.000000 10.000000 -10.000000
v 10.000000 -0.000000 -10.000000
v 0.000000 -0.000000 -10.000000
v 10.000000 10.000000 -10.000000
v 10.000000 -0.000000 -10.000000
v 10.000000 10.000000 -0.000000
v 10.000000 0.000000 0.000000
v 10.000000 10.000000 -10.000000
v 10.000000 10.000000 -0.000000
v 0.000000 0.000000 0.000000
v 10.000000 0.000000 0.000000
v 0.000000 10.000000 -0.000000
v 0.000000 10.000000 -10.000000
v 0.000000 0.000000 0.000000
v 0.000000 10.000000 -0.000000
v 0.000000 -0.000000 -10.000000
v 10.000000 10.000000 -0.000000
v 0.000000 10.000000 -10.000000
v 0.000000 10.000000 -0.000000
v 10.000000 10.000000 -10.000000
vt 0.000000 1
vt -1 1
vt 0.000000 0.000000
vt -1 0.000000
vt 1 0.000000
vt 1 1
vn 0.000000 -1.000000 0.000000
vn 0.000000 0.000000 -1.000000
vn 1.000000 0.000000 0.000000
vn 0.000000 0.000000 1.000000
vn -1.000000 0.000000 0.000000
vn 0.000000 1.000000 0.000000
usemtl ID3_texture0.jpg
s off
f 3/1/1 1/2/1 2/3/1
f 2/3/1 1/2/1 4/4/1
f 7/3/2 5/1/2 6/4/2
f 8/2/2 6/4/2 5/1/2
f 11/3/3 9/5/3 10/1/3
f 12/6/3 10/1/3 9/5/3
f 15/5/4 13/6/4 14/3/4
f 16/1/4 14/3/4 13/6/4
f 19/1/5 17/2/5 18/3/5
f 20/4/5 18/3/5 17/2/5
f 23/3/6 21/5/6 22/1/6
f 24/6/6 22/1/6 21/5/6
