# Blender3D v249 OBJ File: 
# www.blender3d.org
mtllib QuarterPipe.mtl
v 1.539290 10.000000 -0.000000
v 0.000000 10.000000 -10.000000
v 0.000000 10.000000 -0.000000
v 1.539290 10.000000 -10.000000
v 1.596835 8.812158 -10.000000
v 1.539290 10.000000 -0.000000
v 1.596835 8.812158 -0.000000
v 1.539290 10.000000 -10.000000
v 1.794844 7.639523 -10.000000
v 1.794844 7.639523 -0.000000
v 2.130522 6.498644 -10.000000
v 2.130522 6.498645 -0.000000
v 2.599132 5.405628 -10.000000
v 2.599132 5.405628 -0.000000
v 3.194059 4.375898 -10.000000
v 3.194059 4.375899 -0.000000
v 3.906906 3.423990 -10.000000
v 3.906906 3.423991 -0.000000
v 4.727613 2.563339 -10.000000
v 4.727613 2.563339 -0.000000
v 5.644596 1.806092 -0.000000
v 5.644596 1.806092 -10.000000
v 6.644911 1.162936 -0.000000
v 6.644911 1.162935 -10.000000
v 7.714442 0.642950 -0.000000
v 7.714442 0.642949 -10.000000
v 8.838091 0.253472 -0.000000
v 8.838091 0.253471 -10.000000
v 10.000000 0.000000 0.000000
v 10.000000 -0.000000 -10.000000
vt 0.000000 0.000000
vt 0.256548 0.000000
vt 0.000000 1.666667
vt 0.256548 1.666667
vt 0.198323 -1.666667
vt 0.198323 -0.000000
vt -0.000000 -1.666667
vt 0.396645 -1.666667
vt 0.396645 0.000000
vt 0.594968 -1.666667
vt 0.594968 0.000000
vt 0.793291 -1.666667
vt 0.793291 0.000000
vt 0.991613 -1.666667
vt 0.991613 -0.000000
vt 1.189936 -1.666667
vt 1.189936 0.000000
vt 1.388259 -1.666667
vt 1.388259 -0.000000
vt 1.586581 -1.666667
vt 1.586581 -0.000000
vt 1.784904 -1.666667
vt 1.784904 -0.000000
vt 1.983226 -1.666667
vt 1.983226 0.000000
vt 2.181549 -1.666667
vt 2.181549 -0.000000
vt 2.379872 -1.666667
vt 2.379872 -0.000000
vn 0.000000 1.000000 0.000000
vn 0.998829 0.048388 0.000000
vn 0.986041 0.166501 -0.000000
vn 0.959337 0.282263 -0.000000
vn 0.919092 0.394043 -0.000000
vn 0.865875 0.500260 -0.000000
vn 0.800437 0.599416 -0.000000
vn 0.723702 0.690113 -0.000000
vn 0.636751 0.771069 -0.000000
vn 0.540815 0.841142 -0.000000
vn 0.437244 0.899343 -0.000000
vn 0.327503 0.944850 -0.000000
vn 0.213139 0.977022 -0.000000
usemtl ID13_texture0.jpg
s off
f 3/1/1 1/2/1 2/3/1
f 2/3/1 1/2/1 4/4/1
f 7/5/2 5/6/2 6/7/2
f 8/1/2 6/7/2 5/6/2
f 10/8/3 9/9/3 7/5/3
f 5/6/3 7/5/3 9/9/3
f 12/10/4 11/11/4 10/8/4
f 9/9/4 10/8/4 11/11/4
f 14/12/5 13/13/5 12/10/5
f 11/11/5 12/10/5 13/13/5
f 16/14/6 15/15/6 14/12/6
f 13/13/6 14/12/6 15/15/6
f 18/16/7 17/17/7 16/14/7
f 15/15/7 16/14/7 17/17/7
f 20/18/8 19/19/8 18/16/8
f 17/17/8 18/16/8 19/19/8
f 20/18/9 21/20/9 19/19/9
f 22/21/9 19/19/9 21/20/9
f 21/20/10 23/22/10 22/21/10
f 24/23/10 22/21/10 23/22/10
f 23/22/11 25/24/11 24/23/11
f 26/25/11 24/23/11 25/24/11
f 25/24/12 27/26/12 26/25/12
f 28/27/12 26/25/12 27/26/12
f 27/26/13 29/28/13 28/27/13
f 30/29/13 28/27/13 29/28/13
